# xmcd
#
# Track frame offsets: 
#        182
#        32485
#        44750
#        57835
#        76815
#        95797
#        108390
#        130997
#        153850
#        170022
#        189825
#        204152
#        219755
#        237155
#        256970
#        273557
#        295865
#        309382
#
# Disc length: 4374 seconds
#
# Revision: 8
# Processed by: cddbd v1.5.2PL0 Copyright (c) Steve Scherf et al.
# Submitted via: ExactAudioCopy v1.1
#
DISCID=f4111412
DTITLE=Eric Clapton (+ track dates) - The Cream Of Clapton
DYEAR=1994
DGENRE=Blues
TTITLE0=Derek and the Dominos - Layla (1970)
TTITLE1=Cream - Badge (1969)
TTITLE2=Cream - I Feel Free (1966)
TTITLE3=Cream - Sunshine of your Love (1967)
TTITLE4=Cream - Crossroads (1968)
TTITLE5=Cream - Strange Brew (1967)
TTITLE6=Cream - White Room (1968)
TTITLE7=Derek and the Dominos - Bell Bottom Blues (1970)
TTITLE8=Eric Clapton - Cocaine (1977)
TTITLE9=Eric Clapton - I Shot the Sheriff (1974)
TTITLE10=Eric Clapton - After Midnight (1970)
TTITLE11=Eric Clapton - Swing Low Sweet Chariot (1975)
TTITLE12=Eric Clapton - Lay Down Sally (1977)
TTITLE13=Eric Clapton - Knockin' on Heavens Door (1975)
TTITLE14=Eric Clapton - Wonderful Tonight (1977)
TTITLE15=Eric Clapton - Let It Grow (1974)
TTITLE16=Eric Clapton - Promises (1978)
TTITLE17=Eric Clapton - I Can't Stand It (1980)
EXTD=Artist names correctly listed in usable form.\nTrack dates provid
EXTD=ed.
EXTT0=
EXTT1=
EXTT2=
EXTT3=
EXTT4=
EXTT5=
EXTT6=
EXTT7=
EXTT8=
EXTT9=
EXTT10=
EXTT11=
EXTT12=
EXTT13=
EXTT14=
EXTT15=
EXTT16=
EXTT17=
PLAYORDER=
